<?xml version="1.0" encoding="iso-8859-1"?>
<!-- Uploaded to: SVG Repo, www.svgrepo.com, Generator: SVG Repo Mixer Tools -->
<svg fill="#000000" height="800px" width="800px" version="1.1" id="Layer_1" xmlns="http://www.w3.org/2000/svg" xmlns:xlink="http://www.w3.org/1999/xlink" 
	 viewBox="0 0 512.002 512.002" xml:space="preserve">
<g>
	<g>
		<path d="M424.395,299.953c-11.995-11.995-13.54-48.398-11.682-71.356c0.283-1.448,0.442-2.941,0.442-4.471v-91.498
			C413.155,59.497,353.658,0,280.526,0h-49.064C158.331,0,98.834,59.497,98.834,132.628v91.498c0,1.537,0.158,3.036,0.444,4.491
			c1.861,22.958,0.321,59.343-11.67,71.336c-2.481,2.481-3.28,6.187-2.038,9.471c1.241,3.284,4.291,5.535,7.794,5.755
			c0.346,0.021,2.637,0.155,6.508,0.155c10,0,30.535-0.892,55.233-6.896c-37.896,19.347-62.771,58.65-62.771,102.61v92.025
			c0,4.931,3.998,8.929,8.929,8.929h309.472c4.933,0,8.929-3.998,8.929-8.929v-92.025c0-43.964-24.884-83.271-62.792-102.616
			c24.713,6.012,45.26,6.904,55.262,6.903c3.868-0.002,6.161-0.136,6.507-0.157c3.503-0.22,6.553-2.472,7.794-5.754
			C427.674,306.141,426.876,302.434,424.395,299.953z M116.691,132.628h0.001c0-63.284,51.485-114.769,114.769-114.769h49.065
			c63.284,0,114.769,51.485,114.769,114.769v15.138c-1.723-0.41-3.511-0.649-5.358-0.649h-7.092c-1.847,0-3.634,0.239-5.356,0.649
			v-11.321c0-56.799-46.21-103.009-103.009-103.009h-36.975c-56.8,0-103.009,46.21-103.009,103.009v11.321
			c-1.723-0.41-3.51-0.649-5.356-0.649h-7.092c-1.847,0-3.634,0.239-5.358,0.649V132.628z M389.939,229.484h-7.092
			c-2.953,0-5.356-2.404-5.356-5.358v-53.794c0-2.954,2.404-5.358,5.356-5.358h7.092c2.954,0,5.358,2.404,5.358,5.358v52.65
			c-0.065,0.639-0.155,1.548-0.252,2.685C394.377,227.867,392.353,229.484,389.939,229.484z M394.177,248.045
			c-2.862,9.353-10.987,16.032-20.629,17.124c1.799-5.987,3.011-12.201,3.571-18.571c1.836,0.468,3.747,0.744,5.727,0.744h7.092
			c1.448,0,2.859-0.15,4.233-0.405C394.172,247.303,394.175,247.674,394.177,248.045z M134.499,170.331v53.794
			c0,2.954-2.403,5.358-5.356,5.358h-7.092c-2.414,0-4.436-1.616-5.104-3.815c-0.099-1.137-0.187-2.045-0.254-2.685v-49.105v-3.547
			c0-2.954,2.404-5.358,5.358-5.358h7.092C132.096,164.974,134.499,167.377,134.499,170.331z M110.001,297.147
			c6.246-15.227,7.786-34.824,7.82-50.209c1.373,0.254,2.782,0.405,4.227,0.405h7.092c1.98,0,3.891-0.276,5.727-0.744
			c1.429,16.253,7.076,31.503,16.009,44.474C134.594,295.015,120.178,296.573,110.001,297.147z M152.356,224.126v-53.794v-33.889
			c0-46.952,38.199-85.15,85.15-85.15h36.975c46.952,0,85.15,38.197,85.15,85.15v27.403L320.1,108.505
			c-1.712-2.397-4.456-3.809-7.441-3.737c-2.945,0.058-5.672,1.564-7.289,4.027c-36.396,55.437-87.708,98.88-148.389,125.633
			l-4.625,2.039V224.126z M401.805,411.046v83.095H110.192v-83.095c0-38.226,22.258-72.278,55.854-88.08v70.485
			c0,26.352,21.439,47.791,47.791,47.791h84.318c26.345,0,47.779-21.439,47.779-47.791v-70.489
			C379.539,338.763,401.805,372.817,401.805,411.046z M255.997,395.956c-4.931,0-8.929,3.998-8.929,8.929v18.499h-33.233
			c-16.505,0-29.932-13.427-29.932-29.932v-72.98c4.387,2.318,9,4.311,13.815,5.931l41.14,13.849
			c5.524,1.86,11.33,2.789,17.134,2.789c5.805,0,11.609-0.93,17.135-2.789l41.14-13.849c4.814-1.62,9.422-3.611,13.807-5.928v72.975
			c0,16.505-13.421,29.932-29.92,29.932h-33.227v-18.499C264.928,399.953,260.93,395.956,255.997,395.956z M354.628,265.345h-64.239
			c-4.933,0-8.929,3.998-8.929,8.929c0,4.931,3.997,8.929,8.929,8.929h54.394c-8.904,11.955-21.37,21.277-36.213,26.274
			l-41.14,13.849c-7.376,2.481-15.499,2.482-22.873,0l-41.14-13.849c-25.118-8.456-43.444-29.276-49.166-54.329l9.935-4.38
			C224.07,224.366,275.28,182.516,313,129.291l46.63,65.281v43.842h0.001C359.631,247.826,357.869,256.922,354.628,265.345z
			 M361.111,291.071c1.749-2.541,3.38-5.162,4.871-7.869h4.783c9.426,0,18.246-3.094,25.377-8.421
			c1.2,7.825,3.057,15.544,5.865,22.38C391.846,296.595,377.443,295.036,361.111,291.071z"/>
	</g>
</g>
</svg>